<?xml version="1.0" encoding="UTF-8"?>
<svg id="Layer_1" data-name="Layer 1" xmlns="http://www.w3.org/2000/svg" viewBox="0 0 898.08 459.79">
  <defs>
    <style>
      .cls-1 {
        font-family: FibreVintage, 'Fibre Vintage';
        font-size: 100px;
        letter-spacing: .04em;
      }

      .cls-1, .cls-2 {
        fill: #fff;
      }

      .cls-2 {
        stroke-width: 0px;
      }
    </style>
  </defs>
  <text class="cls-1" transform="translate(12.95 80.8)"><tspan x="0" y="0">a crappy website by</tspan></text>
  <g>
    <path class="cls-2" d="M101.64,406.07c-.83-2.13-1.7-3.89-2.22-5.76-2.69-9.65-5.55-19.25-7.88-28.99-14.66-61.25-29.2-122.53-43.75-183.81-2.45-10.34-4.73-20.71-7.09-31.07-.37-1.62-.74-3.23-.57-4.92,1.48-1.1,3.13-1.41,4.73-1.79,11.95-2.87,23.89-5.8,35.86-8.56,13.6-3.13,27.24-6.1,40.88-9.11,2.37-.52,4.76-1.01,7.17-1.24,2.32-.22,4.47-.65,6.15-2.37,1.54.47,2.61,1.54,4.26,1.52,6.64-.04,12.9,1.77,18.92,4.44,9.76,4.33,17.29,11.13,22.55,20.44,2.7,4.78,4.75,9.84,6.3,15.1,4.31,14.55,6.02,29.43,5.31,44.57-.31,6.68-1.15,13.33-3.41,19.68-.91,2.56-2.02,5.08-3.31,7.47-1.98,3.68-4.83,6.58-8.53,8.64-1.44.8-3.25,1.66-3.09,3.59.2,2.28,2.46,2.38,4.13,2.9,2.6.82,5.26,1.47,7.86,2.29,5.38,1.68,9.75,4.85,13.19,9.3.93,1.2,1.86,2.41,2.68,3.68,8.44,13.27,15.26,27.28,19.34,42.53,1.93,7.21,3.06,14.56,3.11,22.04.06,10-1.84,19.62-5.77,28.82-1.37,3.21-3,6.31-4.36,9.52-.85,2-2.17,3.05-4.3,3.56-7.81,1.9-15.59,3.95-23.38,5.95-27.19,6.98-54.38,13.96-81.58,20.93-.87.22-1.77.35-3.23.64ZM131.27,361.33c6.27.17,12,.09,17.71-.96,7.78-1.44,15.44-3.2,22.73-6.36,5.51-2.39,9.04-6.52,10.76-12.21.48-1.59.8-3.24,1-4.89.79-6.56.13-13.05-1.32-19.44-1.18-5.18-2.7-10.27-5.18-15.02-4.51-8.65-11.34-14.49-20.67-17.38-2.64-.82-5.28-1.26-8.07-.79-5.08.86-10.22,1.43-15.27,2.45-4.3.87-8.53,2.13-12.75,3.34-1.1.31-2.09,1.05-3.34,1.71,3.29,23.52,8.3,46.44,14.4,69.58ZM105.4,244.21c7.19-1.48,14.18-2.8,20.91-5.19,1.99-.71,3.94-1.58,5.83-2.54,12.13-6.13,18.04-16.12,18.42-29.6.36-13.24-4.92-24.46-12.23-35-1.61-2.32-3.84-3.44-6.6-3.3-3.32.17-6.67.34-9.95.88-10.78,1.79-21.28,4.79-31.77,7.82-.98.28-1.88.82-2.72,1.19,0,7.89,13.55,57.16,18.11,65.74ZM161.24,222.31c-2.42,3.19-4.25,5.97-6.44,8.43-5.34,6-10.85,11.86-16.3,17.76-.64.69-1.34,1.35-.09,2.28,4.19-1.79,7.74-4.62,11.06-7.74,3.89-3.65,7.36-7.67,9.97-12.35,1.33-2.38,2.53-4.85,1.8-8.39ZM194.31,349.46c-4.01,1.77-6.39,4.95-9.08,7.69-2.65,2.69-5.47,5.26-8.18,8.53,7.2-1.66,14.92-8.14,17.24-14.19.19-.49.02-1.12.02-2.03ZM56.96,161.28c-.03,1.86,1.06,2.59,2.47,2.9,1.28.28,2.37-.27,3.25-1.22.6-.64.24-1.91-.62-2.28-1.84-.79-3.5-.34-5.1.6Z"/>
    <path class="cls-2" d="M352.54,281.25c.41,1.25.64,2.28,1.07,3.21,1.06,2.35,2.17,4.68,3.33,6.98,5.34,10.57,10.37,21.28,14.83,32.25,5.73,14.08,12.51,27.65,19.72,41.01,6.85,12.69,13.72,25.36,20.55,38.06,1.06,1.98,2.3,3.92,2.45,6.21-1.45,1.39-3.18,1.29-4.83,1.3-3.34.02-6.69.05-10.02-.12-8.03-.41-16.06-.93-24.09-1.42-.91-.06-1.81-.23-2.71-.35-2.84-.37-4.42-1.78-5.23-4.73-1.04-3.78-2.6-7.45-4.28-11.01-8.73-18.53-17.58-37.01-26.38-55.5-3.59-7.54-7.11-15.1-10.79-22.59-1.81-3.66-3.8-7.26-5.96-10.72-1.61-2.58-4.09-3.99-7.29-3.86-2.09.08-3.07.69-3.61,2.77-.45,1.76-.79,3.57-.94,5.37-.4,4.99-.73,9.99-.99,15-.87,16.68-1.65,33.36-2.57,50.03-.55,9.85-1.29,19.69-1.97,29.54-.08,1.18-.28,2.34-.45,3.76-3.34.44-6.5.09-9.65.03-3.19-.06-6.37-.24-9.56-.32-3.04-.08-6.07-.11-9.11-.18-3.16-.07-6.34,0-9.37-.23-.93-2.22-.7-4.23-.75-6.18-.6-22.93-.36-45.85.07-68.78.08-3.95.18-7.89.26-11.84.45-24.75.82-49.49,1.36-74.24.5-22.47,1.17-44.93,1.82-67.39.22-7.74.57-15.48.89-23.21.12-3.03.46-6.02,1.96-8.95,1.58,0,3.08-.05,4.57,0,9.25.37,18.5.84,27.76,1.15,18.36.63,36.72,1.21,55.09,1.71,2.81.08,5.36.59,7.82,1.94,3.46,1.9,7.02,3.6,10.51,5.45,11.11,5.92,18.51,14.91,22.54,26.85,6.14,18.2,7.95,36.71,4.4,55.65-1.26,6.75-3.33,13.24-6.53,19.34-2.13,4.06-4.71,7.8-8,11.01-3.65,3.57-7.81,6.16-12.91,7.25-6.52,1.4-13,3.02-19.49,4.58-1.14.28-2.24.73-3.55,1.17ZM371.27,206.27s-.05,0-.08,0c.09-.91.13-1.82.28-2.71.22-1.28-.15-2.33-.89-3.39-2.58-3.7-5.76-6.64-10.07-8.17-3-1.06-5.98-2.18-9.04-3.03-11.7-3.27-23.65-5.29-35.65-7.08-2.68-.4-5.45-.45-8.17-.32-4.47.21-6.2,1.96-6.59,6.48-.24,2.71-.27,5.45-.26,8.18.03,9.25.05,18.5.23,27.75.11,5.61.47,11.21.82,16.81.11,1.8.53,3.59.89,5.37.71,3.44,2.96,5.15,6.37,5.45,1.21.1,2.42.17,3.63.13,15.08-.46,28.94-4.75,41.29-13.52,2.21-1.57,4.28-3.4,6.2-5.33,5.73-5.75,9.48-12.54,10.34-20.74.21-1.96.45-3.91.68-5.87ZM370.46,247.73c-1.5.42-2.24.52-2.88.83-2.32,1.13-4.67,2.22-6.88,3.54-4.94,2.97-9.81,6.06-14.68,9.14-.58.36-1.34.81-.89,1.77,8.63.14,19.7-6.33,25.32-15.29ZM284.3,164.47c1.16-.85,2.03-1.39,2.76-2.07.24-.23.3-.89.17-1.25-.4-1.05-2.2-1.54-3.57-1.07-.71.24-.96,1.2-.52,2.32.21.54.57,1.03,1.16,2.07ZM373.28,233.06c-.29-.39-.48-.9-.78-.98-.25-.06-.83.34-.91.63-.17.61.07,1.26.82,1.26.27,0,.54-.54.87-.91Z"/>
    <path class="cls-2" d="M491.81,134.03c2.22,2.21,4,4.05,5.85,5.81,4.73,4.5,9.49,8.96,14.24,13.44.31.3.93.65.89.89-.5,2.77,1.94,3.47,3.31,4.96,1.95,2.12,3.75,4.38,5.59,6.6,1.36,1.63,2.65,3.32,4.02,4.94,2.65,3.13,5.29,6.26,8.01,9.31,1.4,1.57,2.99,2.99,4.49,4.46.32.32.77.55,1.01.91,2.96,4.66,7.55,7.92,10.77,12.27,2.27,3.07,5.39,5.27,7.51,8.46,1.3,1.96,3.46,3.35,5.22,5.01.55.52,1.23,1.01,1.53,1.66,1.02,2.26,2.19,4.22,4.84,4.99.67.19,1.03,1.4,1.54,2.14.68.98,1.15,2.29,2.08,2.86,2.79,1.73,4.62,4.32,6.65,6.75.68.81,1.27,1.7,2.02,2.44.81.8,1.2,1.67,1.26,2.8.07,1.2.13,2.48.56,3.58,1.24,3.2,1.27,6.49,1.27,9.85-.03,17.31-.01,34.63.06,51.94,0,2.22-.39,4.07-1.92,5.84-2.38,2.74-4.55,5.67-6.65,8.64-1.12,1.59-1.73,3.54-2.86,5.11-2.66,3.69-5.5,7.25-8.28,10.86-.37.48-1.06.86-1.15,1.37-.5,2.91-2.5,4.78-4.44,6.71-.21.21-.44.45-.55.72-1.4,3.64-4.02,6.35-6.7,9.03-.95.95-1.88,1.93-2.82,2.89-.32.32-.84.57-.95.95-.84,2.77-2.89,4.5-5.01,6.25-.76.63-1.25,1.74-1.56,2.73-.59,1.93-2.51,2.6-3.53,4.06-1.02,1.46-1.17,3.34-2.71,4.64-3.72,3.15-6.78,6.87-8.88,11.33-.38.81-1.06,1.47-1.61,2.19-.46.6-.92,1.21-1.43,1.77-4.33,4.7-8.29,9.65-10.72,15.66-.45,1.12-1.12,2.15-1.77,3.17-.32.49-.84,1.24-1.24,1.22-2.12-.08-2.68,1.64-3.65,2.9-1.37,1.77-2.4,3.82-4.65,4.83-.72.33-1.15,1.37-1.65,2.12-1.95,2.88-4.12,5.57-6.16,7.9-1.4.37-1.74-.37-2.22-.94-.69-.84-1.65-.63-2.52-.45-2.67.56-5.38,1.01-7.97,1.83-2.55.81-4.95,1.24-7.48-.01-.62-.31-1.48-.15-2.31-.21-4.64-7.68-9.26-15.32-13.98-23.14.63-.73,1.27-1.46,1.99-2.29-.46-.38-.75-.82-1.12-.9-1.96-.46-2.71-1.61-2.56-3.64.25-3.39-.93-6.54-2.07-9.64-.99-2.67-2.27-5.13-2.58-8.12-.26-2.44-1.88-4.75-2.91-7.1-.42-.96-1.03-1.87-1.3-2.87-.69-2.59-1.11-5.26-1.89-7.82-.75-2.46-1.7-4.88-2.78-7.21-.9-1.94-.72-4.05-1.68-6.06-2.27-4.78-4.02-9.81-5.76-14.82-.98-2.81-1.04-6.01-2.35-8.61-2.32-4.58-2.26-9.71-4.06-14.35-.16-.42-.35-.86-.36-1.3-.07-4.42-1.15-8.65-2.4-12.84-.17-.57-.27-1.19-.28-1.79-.05-3.78,0-7.55-.13-11.33-.1-3.14-.11-6.16.69-9.32,1.07-4.2,1.39-8.65,1.56-13.01.11-2.73.51-5.27,1.41-7.84.54-1.55.56-3.28.8-4.93.09-.6-.07-1.39.26-1.77,1.82-2.1,1.56-4.85,2.39-7.25.83-2.41,1.12-5.01,1.71-7.51.17-.72.62-1.38.86-2.09.28-.85.76-1.76.65-2.58-.21-1.62.21-2.94.98-4.32.49-.88.57-1.98.81-2.99.17-.73.1-1.6.49-2.17,1.02-1.5,1.2-3.1.96-4.79-.22-1.59.18-3,.96-4.35,1.13-1.98,2.24-3.97,3.35-5.95.52-.92,1.27-1.79,1.5-2.79.53-2.27,1.18-4.39,3.19-5.84.34-.25.58-.71.76-1.12,2.72-6.46,6.93-12.03,10.5-17.99.77-1.28,1.39-2.69,1.84-4.12.65-2.1,1.77-3.79,3.43-5.24,1.35-1.19,2.48-2.64,3.67-4.01.39-.45.93-1.01.95-1.53.11-3.95,3.24-6,5.38-8.63,1.81-2.23,3.98-4.17,5.83-6.37,1.3-1.55,2.74-2.83,4.59-3.62,2.49-1.05,4.73-2.71,7.38-3.23ZM499.43,168.89c-1.29-.06-1.49.76-1.77,1.43-1.65,3.98-3.82,7.57-7.24,10.31-1.11.89-1.79,2.03-1.79,3.52,0,1.14-.61,1.98-1.42,2.74-.66.61-1.5,1.24-1.77,2.02-.54,1.59-.86,3.26-2.4,4.24-1.9,1.21-.98,3.4-1.82,4.95-.35.65-.85,1.28-1.43,1.73-.78.6-1.2,1.26-1.27,2.26-.05.72-.2,1.58-.63,2.12-2.54,3.17-3.31,7.11-4.82,10.72-.87,2.09-1.66,4.23-2.34,6.39-1.21,3.87-2.19,7.82-3.49,11.66-1.01,2.99-2.41,5.85-3.52,8.82-.53,1.41-.79,2.92-1.15,4.39-.74,3.09-1.5,6.17-2.19,9.27-.36,1.62-.72,3.26-.83,4.9-.22,3.17-.32,6.36-.35,9.53-.04,3.18-.07,6.37.13,9.54.33,5.14.88,10.27,1.3,15.4.13,1.65-.06,3.34.24,4.95,1.63,8.93,3.3,17.86,5.1,26.75,1.16,5.75,1.4,11.7,3.97,17.15.56,1.18.43,2.66.67,4,.23,1.32.5,2.64.81,3.95.2.88.47,1.74.74,2.6.54,1.73.99,3.49,1.69,5.16,1.58,3.75,3.6,7.3,4.82,11.23.44,1.42,1.49,2.64,2.04,4.04,1.37,3.5,3.61,6.63,4.3,10.41.11.58.7,1.08,1.15,1.74q2.44-4.18,7.28-5.31c.67-1.47,1.4-3.11,2.18-4.83,3.56-.67,4.25-4.35,6.43-6.53,2.33-2.32,3.01-6.12,6.1-8.04.34-.21.59-.72.68-1.14.57-2.67,2.26-4.54,4.46-6.02-.26-2.7.85-4.8,2.26-6.84,1.63-2.36,3.31-4.72,4.61-7.27,1.29-2.54,1.81-5.44,3.94-7.6.56-.57.66-1.66.81-2.55.2-1.27.66-2.35,1.8-3,1.43-.82,1.67-2.1,1.38-3.52-.22-1.07-.43-2.11.27-3.05.81-1.1,1.9-2.05,2.46-3.25.54-1.17.36-2.67.85-3.87,1.09-2.66,2.11-5.42,3.72-7.76,1.77-2.58,2.35-5.49,3.38-8.29,1.3-3.55,2.65-7.11,4.34-10.48,1.79-3.56,1.58-7.72,3.68-11.15.35-.58.18-1.48.22-2.23.04-.75-.23-1.65.09-2.24,1.38-2.58.74-5.34.91-8.03.11-1.66.71-3.57.11-4.93-1.13-2.52-.59-5.06-.87-7.57-.38-3.3-1.37-6.55-1.54-9.78-.3-5.63-3.96-10.04-4.8-15.38-.07-.42-.41-.81-.67-1.18-1.93-2.73-3.79-5.49-5.1-8.59-.34-.82-1.02-1.49-1.54-2.23-.68-.98-1.4-1.94-2.02-2.96-1.33-2.2-2.47-4.52-3.94-6.62-1.38-1.98-2.84-4.04-4.71-5.5-1.96-1.52-3.35-3.3-4.57-5.36-.28-.48-.97-.7-1.44-1.09-.58-.48-1.32-.91-1.63-1.53-1.13-2.28-3.22-3.58-4.95-5.25-1.51-1.46-3.04-3.01-4.13-4.78-1.25-2.04-2.49-3.65-5.07-4.03-1.69-.25-2.19-1.27-2.03-3,.11-1.21.4-2.4.52-3.6.05-.51-.12-1.05-.18-1.53Z"/>
    <path class="cls-2" d="M660.11,383.43c-3.47.42-27.4-.77-31.6-1.58-.08-.96-.27-1.99-.24-3.02.41-14.42.86-28.84,1.28-43.25.11-3.79.21-7.59.27-11.38.19-12.61,1.31-25.16,2.55-37.7,1.09-11.02,2.13-22.05,3.21-33.25-.66-.42-1.64-.71-1.73-1.16-.15-.79.03-1.86.49-2.5.82-1.14,1.42-2.24,1.64-3.66.13-.84.66-1.74,1.26-2.35,1.63-1.65,1.8-3.66,1.99-5.82,1.44-16.64,3.4-33.21,6.7-49.6.48-2.36.8-4.75.94-7.2-2.72,4.53-3.02,9.91-5.16,14.73-1.11-.44-.69-1.31-.68-1.9.09-4.25.27-8.5.41-12.74.07-1.97.25-3.95.14-5.91-.21-3.88-1.57-5.46-5.32-6.3-1.62-.36-3.3-.65-4.95-.67-8.4-.1-16.6-1.56-24.73-3.55-2.65-.65-5.36-1.07-8-1.75-1.93-.5-2.5-1.44-2.14-3.38,2.34-12.4,3.15-24.99,4.43-37.51.09-.87.35-1.73.56-2.73,1.06-.06,1.95-.19,2.83-.15,40.01,1.94,79.96,4.65,119.71,7.36,1.08,1.59.62,2.97.52,4.29-.79,10.29-1.61,20.58-2.45,30.87-.11,1.36-.3,2.71-.54,4.05-.55,3.12-2.52,4.76-5.59,5.07-3.17.33-6.35.59-9.53.79-5.91.38-11.83.64-17.73,1.05-1.96.14-3.91.51-5.83.93-1.02.22-2.03.66-2.93,1.2-1.87,1.12-2.62,2.95-2.15,5.06.19.88.39,1.84.88,2.57,1.8,2.72,1.68,5.75,1.64,8.8-.1,8.22-1.47,16.32-2.37,24.46-1.05,9.5-2.2,19-3.26,28.5-1.13,10.11-2.22,20.22-3.29,30.33-1.04,9.81-2.04,19.63-3.04,29.44-1.14,11.17-2.27,22.35-3.37,33.53-.74,7.55-1.43,15.11-2.15,22.67-.67,6.95-1.34,13.9-2.05,20.85-.09.88-.43,1.73-.64,2.54ZM617.36,135.9c-.04-1.6-1.31-2.77-2.89-2.65-1.21.09-2.16,1.14-2.15,2.38,0,1.43,1.07,2.35,2.65,2.3,1.51-.05,2.42-.83,2.39-2.03ZM639,246.37c-1.12-.19-1.74.14-1.72,1.02.02,1.17.52,2.16,1.91,3.1-.07-1.64-.13-2.91-.18-4.13Z"/>
    <path class="cls-2" d="M783.72,410c-15.56.07-30.36-2.12-45.14-4.53-.89-2.85-.39-5.39.18-7.87.47-2.06,1.07-4.13,1.89-6.08,2.14-5.09,3.23-10.44,4-15.85,1.38-9.61,2.55-19.25,3.79-28.89,1.4-10.83,2.75-21.68,4.2-32.5,1.59-11.88,3.26-23.75,4.94-35.62,1.61-11.42,3.26-22.83,4.92-34.24,2.02-13.81,4.08-27.62,6.1-41.43,1.71-11.71,3.41-23.42,5.04-35.14.81-5.86,1.44-11.75,2.19-17.62.25-1.95.49-3.92.95-5.83.67-2.79,1.99-3.7,4.93-3.63,1.05.03,2.12.18,3.15.4,9.52,2.01,19.16,3.14,28.81,4.18,1.8.2,3.58.53,5.59.83.06,1.02.23,1.9.13,2.75-2.39,21.41-4.56,42.85-7.84,64.15-2.84,18.44-5.47,36.92-8.18,55.38-3.17,21.62-6.43,43.22-9.44,64.86-2.9,20.89-5.53,41.82-8.29,62.73-.59,4.49-1.24,8.98-1.93,13.94ZM794.04,156.59c-.61-1.09-1.58-1.26-2.68-1.01-.24.05-.61.37-.6.55.02.39.13.91.4,1.13,1.09.89,1.31.81,2.88-.67ZM786.75,205.17c-.74-.73-1.2-1.19-1.66-1.64-.32.41-.9.84-.89,1.24.01.45.48,1.09.9,1.26.3.12.86-.42,1.64-.85Z"/>
    <path class="cls-2" d="M539.01,421.86c-1.05-.95-1.05-.89-3.82-1.34-.63-.1-1.38-.64-1.7-1.2-.48-.84-.21-1.76.59-2.42.12-.1.24-.2.38-.25,2.16-.88,3.84-2.41,5.48-4,.94-.9,2.03-1.24,3.34-.9,5.9,1.55,12.01,1.55,18.01,2.39,3.15.44,6.3,1.01,9.39,1.76,5.94,1.44,11.94,2.03,18.04,2.11,5.3.07,10.6.43,15.89.75,1.5.09,2.99.44,4.46.78,7.15,1.66,14.42,1.75,21.72,1.89,9.56.18,19.11.55,28.65,1.12,4.63.28,9.22,1.22,13.8,2.1-6.2.96-12.32-1.14-19.63-.25,1.95.49,2.85.78,3.76.93,10.62,1.81,21.37,2.26,32.07,3.28,5.12.49,10.24,1.13,15.35,1.7,2.86.32,5.71.63,8.57.97,6.01.72,11.99,1.63,18.02,2.16,11.33.99,22.69,1.76,34.03,2.62,3.47.26,6.96.45,10.42.77,1.19.11,2.39.45,3.52.85,1.63.58,2.18,1.61,1.89,3.15-.27,1.46-1.2,2.31-2.89,2.35-2.12.05-4.25-.01-6.37-.13-3.02-.16-6.04-.41-9.07-.63-3.33-.24-6.66-.49-9.99-.73-6.05-.43-12.12-.74-18.16-1.28-9.96-.89-19.9-1.96-29.85-2.9-6.48-.62-12.96-1.32-19.48-1.58-6.81-.28-13.61-.9-20.38-1.7-9.16-1.08-18.27-2.55-27.42-3.69-4.66-.58-9.38-.71-14.06-1.16-5.73-.55-11.49-.93-17.15-1.9-11.39-1.94-22.85-3.12-34.34-4.08-9.37-.79-18.76-1.29-28.14-1.85-1.47-.09-2.97.19-4.95.33ZM551.92,417.47c-1.45-.3-3.09-1.04-4.72,0h4.72Z"/>
    <path class="cls-2" d="M867.47,453.96c-6.19.64-13.13.44-10.93-4.5.05-.12.06-.25.14-.37,1.51-2.27,2.42-4.58,3.17-6.91.75-2.34,2.79-4.57,5.44-6.64,1.25-.98,3.23-1.8,5-2.65.42-.2,1.36-.32,2.02-.29.87.03.98.42,1.05.74.59,2.78,1.28,5.56,1.75,8.35.41,2.41.61,4.83.82,7.25.4,4.67-3.81,4.54-8.45,5.03Z"/>
    <path class="cls-2" d="M271.29,114.01c-.25-1.44.42-1.86,1.17-1.99,1.34-.24,2.71-.36,4.07-.45,6.36-.4,12.73-.68,19.08-1.19,4.83-.39,9.63-1.15,14.46-1.56,5.28-.45,10.57-.62,15.85-1.04,8.61-.68,17.24-.9,25.84-1.9,9.78-1.13,19.66-1.06,29.52-.62,1.5.07,3.01-.02,4.51,0,1.05.02,2.16-.09,3.15.19,1.53.42,2.97.5,4.46-.03,1.77-.63,3.58.87,5.35-.06,4.51.15,9.01.32,13.52.43,1.05.03,2.11-.21,3.17-.21,6.67-.05,13.33-.04,20-.1,4.97-.04,9.94-.17,14.91-.23.91-.01,1.82.05,2.72.15,2.14.24,2.99.96,3.52,2.9.41,1.5.43,3-.05,4.48-.61,1.92-1.53,2.5-3.71,2.56-2.7.07-5.4.31-8.1.3-9.36-.06-18.72-.21-28.07-.3-6.06-.06-12.11-.01-18.17-.1-3.32-.05-6.64-.28-9.97-.39-7.41-.24-14.81-.56-22.22-.65-7.57-.1-15.12.39-22.68.83-6.64.38-13.32.01-19.99.07-8.64.07-17.28.24-25.92.37-8.8.13-17.57-.2-26.43-1.43Z"/>
    <path class="cls-2" d="M11.34,403.6c1.28.88,2.28,1.81,2.61,2.93.98,3.25,2.15,6.5,2.89,9.76.51,2.26.39,4.55.6,6.82.09.93.19,1.87.53,2.79.66,1.76,1.11,3.56,2.71,5.2.39.4.24.93.43,1.38.19.46.28.99.79,1.33,2.3,1.55,2.16,3.38,2.4,5.16.17,1.25-.04,2.52.28,3.75.41,1.55-1.08,2.55-3.06,3.46-.42.19-1.07.38-1.61.37-4.68-.05-9.39.23-14.04-.27-4.07-.44-5.8-1.37-5.87-3.54-.05-1.41.28-2.82.54-4.23.62-3.28,1.53-6.55,1.91-9.84.33-2.81.09-5.64.12-8.46,0-.86,0-1.73.11-2.59.36-2.59.81-5.17,1.15-7.75.15-1.13.53-2.18,2.14-3.02.42-.22.76-.49,1.04-.77,1.42-1.44,1.41-1.44,4.32-2.48Z"/>
    <path class="cls-2" d="M14.27,170.39c.9,1.28,1.39,1.67,1.46,2.14.28,1.79.63,3.61.6,5.42-.08,6.37-.21,12.74-.5,19.1-.43,9.39-1.09,18.78-1.51,28.17-.34,7.42-.48,14.85-.72,22.28-.05,1.67-.21,3.33-.28,4.99-.07,1.52-.33,3.08-.07,4.54.69,3.94.45,7.81.07,11.76-.48,4.95-.43,9.96-.78,14.92-.26,3.76-.8,7.51-1.2,11.26-.09.9-.13,1.81-.14,2.72-.06,4.69.03,9.4-.21,14.08-.17,3.32-.86,6.62-1.13,9.94-.27,3.32-.31,6.65-.45,9.98-.1,2.42-.14,4.85-.33,7.27-.09,1.15-.84,1.87-2.04,2.13-4.98,1.07-6.58-.1-6.63-5.4-.05-4.52.17-9.05.46-13.57.35-5.29.92-10.56,1.36-15.84.1-1.2.23-2.42.09-3.6-.33-2.89-.19-5.72.28-8.6.47-2.83.61-5.71.85-8.58.42-4.97.82-9.95,1.23-14.92.13-1.51.31-3.02.4-4.53.14-2.25.21-4.51.32-6.76.17-3.63.19-7.27.54-10.89,1.4-14.48,2.87-28.95,4.38-43.41.44-4.22,1.18-8.42,1.63-12.64.68-6.33,1.22-12.68,1.83-19.02.06-.59.19-1.18.48-2.94Z"/>
    <path class="cls-2" d="M841.48,412.64c-2.32-3.52-3.14-7.38-3.73-11.21-.7-4.53-2.04-8.84-3.31-13.2-.3-1.02-.75-2.05-.76-3.08-.05-4.36-1.77-8.28-3.01-12.33-.86-2.8-.93-2.78-4.46-4.15-.2,1.18-.47,2.3-.57,3.44-.76,8.94-2.66,17.68-4.63,26.41-.77,3.39-1.38,6.83-1.95,10.26-.91,5.53-1.75,11.08-2.55,16.62-.24,1.64-.26,3.31-.37,4.97-.1,1.51.04,3.08-.32,4.53-1.03,4.19-.94,8.41-.74,12.67.16,3.36-.27,6.66-1.07,9.93-.27,1.09-.7,2.03-1.93,2.23-1.74.29-3.32-.32-3.82-1.72-.33-.94-.57-2.18-.22-3.03,1.47-3.61,1.76-7.34,1.66-11.17-.02-.9.18-1.81.33-2.71,1.6-9.71,3.01-19.44,5.32-29.02,2.16-8.98,4.18-18,6.19-27.02.69-3.11,1.34-6.24,1.68-9.4.93-8.45,2.51-16.78,4.25-25.1,2.33-11.13,4.37-22.31,5.78-33.6.51-4.05,1.22-8.09,1.89-12.12.06-.34.63-.88.86-.83.5.09.99.47,1.39.82.19.17.23.56.25.85.04.6.05,1.21.04,1.82-.18,12.44.17,24.87,1.01,37.29.64,9.38,1.21,18.76,1.7,28.15.18,3.48.06,6.97.1,10.46.02,2.12.09,4.24.12,6.35.01.91.27,1.94-.08,2.7-1.02,2.23-.6,4.4-.28,6.66.53,3.75.83,7.53,1.2,11.29.07.74.01,1.49.01,2.23ZM830.03,363.25l.15-.25-.21-.05.06.3Z"/>
    <path class="cls-2" d="M865.99,253.58c.28,2.6.64,5.28.83,7.98.44,6.51.71,13.03,1.22,19.54.32,4.07,1.03,8.11,1.43,12.18.45,4.52.91,9.05,1.07,13.58.25,7.12.15,14.25.39,21.37.18,5.15.54,10.3,1.05,15.42.53,5.31.46,10.6.3,15.91-.14,4.84-.15,9.68-.2,14.52,0,.3-.02.62.06.91,1.59,5.65,1.07,11.45,1.31,17.2.07,1.66.41,3.31.45,4.97.03,1.34-.08,2.72-.35,4.03-.38,1.86-1.63,2.78-3.55,2.9-1.22.08-2.56.42-3.44-.58-.99-1.1-.24-2.3.41-3.33.61-.96.66-1.93.54-3.03-.29-2.71-.58-5.43-.61-8.15-.04-3.51-.57-6.93-1.24-10.35-.18-.89-.37-1.79-.43-2.69-.3-4.99-.79-9.98-.76-14.97.05-7.74-.08-15.47-1.03-23.15-1.45-11.79-1.03-23.59-.71-35.4.09-3.47-.2-6.97-.55-10.44-.6-6.05-.76-12.08-.17-18.15.35-3.62.25-7.28.52-10.91.19-2.56.57-5.12,1.04-7.65.18-.99.68-2.08,2.41-1.71Z"/>
    <path class="cls-2" d="M866.34,198.83q-1.61,14.2-3.56,16.49c.22-4,.53-7.91.62-11.83.19-8.02-.04-16.03-.58-24.05-.59-8.62-.45-17.29-.5-25.94-.04-6.84-.5-13.64-1.31-20.43-.38-3.15-.8-6.31.22-9.47.24-.75-.19-1.73-.31-2.6-.14-.99-.28-1.99-.43-3.07.91-.18,1.5-.41,2.08-.39,3.18.13,6.36.28,9.53.5,1.5.1,3.01.3,4.49.58,1.45.28,2.08,1,2.05,2.56-.03,1.97-.15,3.94-.43,5.89-1.49,10.35-3.05,20.69-4.56,31.04-1.01,6.9-2.12,13.79-2.9,20.72-.54,4.82-.59,9.69-.87,14.54-.07,1.21-.09,2.43-.3,3.62-.3,1.65-1.45,2.16-3.23,1.83Z"/>
    <path class="cls-2" d="M243.88,326.49c1.55.09,2.74.11,3.91.25,1.22.14,1.92.86,2.02,2.07.06.75.07,1.53-.07,2.25-.7,3.57-1.34,7.16-2.23,10.68-1.04,4.14-1.51,8.31-1.61,12.58-.16,6.96-.72,13.9-1.02,20.86-.25,5.75-.36,11.51-.53,17.26-.04,1.36-.12,2.72-.14,4.08-.01,1.37.1,2.8-1.14,3.76-1.54,1.2-3.05,2.55-5.23,2.31-1.98-.22-3.93-.29-5.84.42-.41.15-.91.02-1.35.08-4.73.66-7.34-3.98-5.35-8.24.51-1.08.95-2.22,1.27-3.37,1.54-5.54,3.4-11.02,4.44-16.66,1.47-7.91,4.22-15.5,5.64-23.38.99-5.49,2.5-10.95,2.31-16.63-.04-1.03.27-2.1.59-3.09.17-.52.64-1.22,1.09-1.32,2.17-.49,2.7-2.19,3.23-3.92Z"/>
    <path class="cls-2" d="M204.18,396.63c.6,2.22,1.23,4.4,1.77,6.6.54,2.19-.24,4.22-1.04,6.18-.25.61-1.01,1.19-1.66,1.4-1.72.55-3.49,1.1-5.27,1.26-9.37.81-18.57,2.7-27.82,4.28-6.42,1.1-12.83,2.25-19.05,4.19-3.47,1.08-6.82,2.52-10.28,3.61-4.62,1.45-9.27,2.83-13.95,4.04-3.23.84-6.54,1.34-9.54,2.9-.13.07-.28.12-.42.16-1.2.35-2.4,0-2.83-.8-.57-1.09-.44-2.65.5-3.34.84-.62,1.81-1.13,2.8-1.44,2.45-.76,4.95-1.4,7.43-2.06,6.44-1.73,12.75-3.8,19.02-6.1,8.95-3.28,18.05-6.2,27.2-8.84,5.3-1.53,10.13-3.97,15.07-6.25,4.53-2.08,9.08-4.1,13.65-6.07,1.27-.55,2.64-.63,4.43.28ZM197.98,403.73c.1,1.09.17,1.87.26,2.87q1.54-1.32-.26-2.87Z"/>
    <path class="cls-2" d="M159.59,452.25c.14-.26.18-.48.28-.51.28-.09.59-.13.89-.15,2.57-.17,5.14-.39,7.72-.49,5.76-.24,11.52-.34,17.27-.65,7.72-.42,15.44-.84,23.14-1.5,15.71-1.35,31.37-3.32,47.2-3.18,5.91.05,11.82-.56,17.73-.86,1.56-.08,2.94-.55,4.23-1.46,2.31-1.63,4.9-2.13,7.74-2.09,4.89.07,9.61-1.15,14.17-2.79,2.4-.87,4.73-2.05,6.33-4.26.43-.6,1.03-1.15,1.66-1.53,2.39-1.44,4.75-.18,4.8,2.58.02.89-.14,1.82-.39,2.68-.82,2.76-1.69,5.51-2.6,8.24-.49,1.46-1.29,2.17-2.66,1.98-4.12-.57-8.18.12-12.26.39-15.61,1.02-31.23,1.06-46.86.9-6.07-.07-12.14.02-18.2.25-4.7.17-9.38.71-14.07,1-8.17.51-16.33,1.12-24.51,1.37-10.15.3-20.32.28-30.47.38-.37,0-.74-.18-1.14-.29Z"/>
    <path class="cls-2" d="M232.85,106.26c2.13,4.93,2.43,9.64,1.24,14.34-1.24,1.24-2.69,1.02-4,.96-3.47-.16-6.94-.46-10.41-.78-10.09-.93-20.18-1.96-30.28-2.83-3.36-.29-6.56-1.07-9.73-2.12-.69-.23-1.31-.68-2.31-1.22.64-.54,1-.96,1.45-1.2,2.84-1.45,5.86-1.97,9.04-2.26,5.12-.47,10.19-1.42,15.28-2.18,6.87-1.02,13.74-2.08,20.62-3.06,1.94-.27,3.91-.44,5.86-.41,1.15.02,2.29.52,3.23.75Z"/>
    <path class="cls-2" d="M553.53,102.89c3.02,2.29,4.03,5.23,3.54,8.76-.06.45-.22.88-.3,1.32-.64,3.32-1.93,4.61-5.08,4.45-2.85-.14-5.75-.47-7.96-2.66-1.95-1.93-4.4-2.38-7.01-2.75-5.2-.72-10.46-1.24-15.33-3.52-2.36-1.11-4.08-2.56-4.19-5.32-3.06-1.45-6.55-1.48-9.95-3.76,5.1-.54,9.42.8,14.07.85,1.57-1.9,3.91-2.13,6.4-2.21,5.9-.18,11.79-.53,17.69-.85,1.04-.06,2.08-.31,3.12-.46,1.04-.15,2.08-.42,3.12-.41,1.49,0,2.51,1.14,2.5,2.65,0,.75-.14,1.5-.26,2.25-.09.58-.24,1.14-.36,1.65Z"/>
    <path class="cls-2" d="M761.12,109.28c-4,1.72-7.45.95-10.82.13-3.82-.93-7.52-2.36-11.36-3.14-4.58-.93-9.23-1.64-13.89-2.02-7.42-.6-14.7-1.87-21.96-3.51-5.46-1.23-11-2.18-16.55-2.88-9.47-1.18-18.98-2.06-28.48-3.04-.71-.07-1.35-.15-2.11-.35.76-1.31,1.73-1,2.53-.97,7.27.29,14.54.56,21.81.97,8.18.46,16.34,1.09,24.51,1.56,6.81.39,13.62.8,20.44.91,4.7.07,9.4-.07,14.06.71,5.66.94,11.32,1.91,16.97,2.9,3.74.65,4.95,1.91,5.24,5.65.08,1.01-.24,2.04-.38,3.09Z"/>
    <path class="cls-2" d="M60.66,377.42c-.67-2.08-1.51-4.19-2.01-6.38-.85-3.69-1.44-7.43-2.23-11.14-.57-2.65-1.05-5.35-1.97-7.88-1.99-5.49-2.25-11.27-3.12-16.95-1.29-8.38-2.4-16.79-3.56-25.19-1.06-7.66-1.82-15.35-1.26-23.1.02-.26.23-.51.35-.76.18.22.48.44.51.67.58,6.35,1.97,12.56,3.5,18.74,1.02,4.11,2.44,8.12,3.48,12.23,1.48,5.87,2.77,11.78,4.13,17.68,1.09,4.72,1.95,9.51,3.3,14.15,1.74,5.98,3.02,12.04,4.21,18.13.26,1.33.52,2.67.97,3.94.65,1.83.47,3.58-.17,5.32-.48,1.31-1.43,1.79-2.87,1.54-.45-.08-.89-.21-1.32-.34-.57-.18-1.13-.38-1.94-.66Z"/>
    <path class="cls-2" d="M422.01,174.13c-.05-.45-.23-1.65-.32-2.85-.15-2.1.32-2.74,2.3-3.2,1.32-.31,2.65-.64,4-.8,2-.24,3.84-.65,5.25-2.3.6-.71,1.7-.93,2.46-.25.49.43.94,1.34.84,1.94-.72,4.16-1.46,8.32-2.45,12.42-.57,2.34-1.64,4.55-2.44,6.84-1.4,4.02-2.19,8.18-2.8,12.39-.63,4.35-1.26,8.67-3.47,12.62-.71,1.26-.7,2.92-1.09,4.38-.15.56-.39,1.15-.76,1.58-.25.28-.82.45-1.21.4-.38-.05-.89-.37-1.04-.7-.24-.53-.27-1.16-.31-1.76-.55-6.93-1.07-13.87-1.62-20.8-.21-2.56-.55-5.12-.72-7.69-.12-1.83-.13-3.64,1.98-4.64.53-.25.96-1.16,1.05-1.82.22-1.64.23-3.32.36-5.74ZM431.7,173.27c-.76.38-1.58.73-.85,1.77.29-.59.59-1.19.88-1.79-.05-.13-.12-.25-.14-.39-.02-.13,0-.26.01-.39.03.27.06.54.1.81ZM425.82,176.69c.24-.02.48-.04.72-.07.24-1.55.48-3.1.73-4.75-1.66.31-1.95.44-1.9.96.11,1.29.29,2.58.45,3.86Z"/>
    <path class="cls-2" d="M377.99,288.49c1.38-.1,2.4-.23,3.41-.23,3.2.02,6.35-.31,9.35-1.48,1.23-.48,2.34-.37,3.64.13.17.52.48,1.07.53,1.63.28,3.62.3,7.26.8,10.85.56,4.03,1.38,8.05,2.34,12.01,1.86,7.63,3.86,15.22,5.88,22.81.54,2.04,1.39,4,2.09,6,.55,1.57.39,2.49-.46,2.76-1.16.38-2.61-.12-3.12-1.14-1.49-2.97-2.88-5.99-4.45-8.92-3.53-6.58-5.92-13.58-7.72-20.79-1.05-4.17-3.37-7.74-5.11-11.59-1.36-3-3.58-5.55-4.42-8.86-.28-1.1-1.63-1.93-2.75-3.18Z"/>
    <path class="cls-2" d="M547.74,166.16c-.74-.16-1.54-.16-2.13-.51-2.59-1.54-5.15-3.09-7.15-5.48-1.24-1.49-3.09-2.48-4.31-3.98-3.9-4.78-7.81-9.57-11.38-14.61-3.48-4.92-6.21-10.3-8.67-15.83-1.42-3.2-1.53-6.63-2.4-9.92-.1-.39.48-.96.75-1.45.48.27,1.08.45,1.4.85.56.7.98,1.53,1.41,2.33,3.9,7.3,9.51,13.24,15.24,19.07,5.51,5.61,10.67,11.5,14.9,18.16,1.93,3.04,2.62,6.42,2.86,9.93.03.4-.29.83-.52,1.44Z"/>
    <path class="cls-2" d="M439.73,143.79c-.04.81.03,1.59-.13,2.31-.39,1.74.31,3.72-1.11,5.22-1.79,1.89-3.72,3.69-6.24,4.43-2.46.71-5.03,1.06-7.57,1.44-1.03.15-2.13.06-3.16-.14-2.55-.49-3.44-1.58-3.14-4.11.22-1.84.61-3.54-1.13-4.97-.45-.37-.61-1.47-.45-2.12.43-1.7.16-3.24-.31-4.87-.32-1.08.11-2.11,1.14-2.73.65-.39,1.28-.86,1.99-1.08,3.59-1.12,7.11-2.53,10.96-2.51,1.05,0,2.1-.3,3.15-.37,3.16-.2,5.24,1.4,5.73,4.56.25,1.64.18,3.32.26,4.94Z"/>
    <path class="cls-2" d="M718.72,284.84c.29.8.75,1.51.76,2.22.04,2.25.42,4.68-.28,6.71-.8,2.33-3.61,1.73-5.59,2.18-4.75,1.07-9.54,1.85-14.42,1.11-1.78-.27-3.53-.8-5.28-1.26-1.79-.47-2.27-1.85-2.26-3.49.02-2.28.67-4.16,3.03-5.1,2.1-.84,4.19-1.73,6.22-2.71,4.64-2.23,9.25-4.52,13.85-6.81,1.99-.99,2.99-2.92,3.88-4.61,5.16-.35,6.19.86,4.67,5.25-.28.81-.86,1.64-1.54,2.15-1.39,1.06-2.3,2.39-3.05,4.34Z"/>
    <path class="cls-2" d="M335.84,363.76c.6,1.71,1.06,3.28,2.48,4.36.61.47.83,1.56,1.04,2.42,2.53,10.62,6.29,20.84,9.97,31.1,2.04,5.69,3.8,11.48,5.67,17.23.28.86.51,1.75.62,2.65.46,3.72-2.64,7.17-6.4,7.21-1.45.01-2.36-.52-2.7-1.91-.4-1.61-.75-3.26-.85-4.91-.43-7.6-2.19-14.93-4.09-22.26-2.23-8.64-4.27-17.33-6.34-26.01-.74-3.1-.54-6.27-.36-9.42,0-.07.24-.12.97-.46Z"/>
    <path class="cls-2" d="M559.16,382.88c.27-.82.37-1.45.67-1.96,3.41-5.72,7.23-11.13,11.86-15.96,6.58-6.87,13.15-13.77,19.72-20.65.31-.33.59-.8.97-.93,2.08-.71,3.1-2.28,3.66-4.26.04-.14.13-.27.21-.4.52-.85,1.31-1.46,2.24-1.06.57.25,1.18,1.06,1.24,1.67.22,2.11.21,4.24.29,6.36.09,2.27-.83,3.83-2.6,5.42-4.51,4.05-8.67,8.49-13.02,12.72-3.9,3.79-7.75,7.64-11.85,11.21-3.66,3.19-7.75,5.83-12.09,8.04-.21.11-.56-.08-1.31-.21Z"/>
    <path class="cls-2" d="M842.67,145.49c1.36.66,1.45,1.75,1.47,2.81.09,5.3.12,10.6.23,15.9.22,10.4-2.01,20.47-4.03,30.57-.86,4.3-1.47,8.65-2.16,12.98-.64,4.04-1.18,8.1-1.88,12.13-1.37,7.95-1.52,15.95-1.29,24,.19,6.51-.03,13.04-.04,19.55,0,1.97.08,3.94.08,5.91,0,.75-.08,1.51-.24,2.24-.18.85-1.2,1.49-2.09,1.36-.85-.13-1.37-.72-1.43-1.53-.1-1.35-.17-2.72-.08-4.08.43-6.65.93-13.3,1.37-19.96.2-3.02.57-6.05.47-9.07-.23-6.86.94-13.6,1.36-20.4.38-6.2,1.06-12.38,1.46-18.58.26-4.1.85-8.13,1.79-12.11,2.53-10.66,3.64-21.49,3.87-32.43.05-2.42.26-4.84.49-7.25.06-.69.42-1.35.65-2.06Z"/>
    <path class="cls-2" d="M252.33,150.88c-.18,2.58,3.28,4.55,1.58,7.92-1.72.61-3.62,1.14-4.93,2.73-.27.33-.75.66-1.15.69-3.11.19-6.39,1.43-9.27-.54-5.71-3.93-12.27-5.74-18.67-8.01-3.01-1.07-6.21-1.26-9.21-2.21-1.5-.47-3.85.29-4.36-2.24,1.39-1.73,3.09-.4,4.63-.41,3.33-.02,6.65.13,9.98.25,1.96.07,3.92.24,5.88.31,6.95.22,13.91.42,20.87.63,1.49.04,3.04-.36,4.66.88Z"/>
    <path class="cls-2" d="M209.13,256.36c2.41-2.53,4.98-3.98,8.26-4.51,7.64-1.21,14.94-3.81,22.37-5.91,2.32-.66,4.62-1.47,7.1-1.35,3.09.15,4.86,1.6,5.15,4.62.16,1.63.06,3.32-.14,4.95-.16,1.28-.96,2.22-2.37,2.41-1.65.22-3.29.58-4.94.62-8.49.23-16.97.42-25.46.54-2.27.03-4.55-.17-6.8-.41-1.01-.11-1.98-.59-3.16-.96Z"/>
    <path class="cls-2" d="M703.34,197.53c-.51.97-.83,1.85-1.38,2.54-1.11,1.38-3.38,1.23-4.22-.27-.51-.91-.99-1.92-1.12-2.94-.41-3.14-.72-6.3-.94-9.46-.13-1.99.62-2.88,2.53-3.01,1.95-.13,3.99-.36,5.87.02,3.34.67,6.58.19,9.87-.07,3.45-.27,6.91-.48,10.38-.57,1.48-.04,2.98.31,4.38.48.72,2.34.64,2.85-.53,3.6-.38.24-.82.39-1.21.63-3.46,2.12-7.35,3.33-10.72,5.72-2.83,2.01-6.49,2.33-9.91,2.96-.89.16-1.79.23-3.02.38Z"/>
    <path class="cls-2" d="M724.51,370.54c-.2,1.47-1.22,2.21-2.37,2.52-2.03.55-4.13,1.17-6.21,1.21-5.13.09-10.27-.03-15.4-.24-6.49-.27-12.98-.72-19.47-1.12-.58-.04-1.19-.22-1.71-.49-1.41-.71-1.57-3.09-.16-3.74,1.62-.75,3.36-1.48,5.11-1.67,9.33-1.01,18.7-1.62,28.09-1.25,2.54.1,5.1.68,7.57,1.33,1.91.5,3.5,1.72,4.54,3.45Z"/>
    <path class="cls-2" d="M62.97,419.77c5.13,9.07,14.83,6.75,17.29,17.06,3,12.55,5.96,2.53-5.87,13.24-13.52-16.98-7.02-9.08-11.42-30.3Z"/>
    <path class="cls-2" d="M748.75,282.71c.27-3.76.57-7.51.81-11.27.51-7.71,1.04-15.43,1.47-23.15.92-16.7,3.57-33.13,7.48-49.37.24-1,.65-1.95,1.01-3.03,1.11.5.74,1.35.71,1.93-.35,5.6-.56,11.22-1.21,16.78-1.92,16.25-3.98,32.49-6.1,48.72-.73,5.56-1.77,11.07-2.73,16.59-.17.99-.69,1.93-1.04,2.89-.13-.03-.26-.06-.39-.09Z"/>
    <path class="cls-2" d="M319.7,326.7c.89,28.83.07,57.25-2.23,85.64-.04.49-.52.95-1.2,2.15,0-2.06.03-3.27,0-4.47-.24-8.18-.45-16.36-.75-24.53-.54-14.71-.5-29.39,1.27-44.03.45-3.76.8-7.53,1.26-11.29.14-1.14.08-2.42,1.66-3.47Z"/>
    <path class="cls-2" d="M443.03,432.55c-1.47,0-1.92.02-2.38,0-3.02-.16-3.48-.59-3.95-3.77-.59-4.04-.9-8.14-1.79-12.12-.82-3.67-2.24-7.21-3.4-10.8-.19-.57-.54-1.11-.6-1.69-.04-.38.2-.93.5-1.16.29-.22.96-.32,1.23-.14,1.7,1.22,3.61,2.21,4.73,4.12,3.67,6.27,7.38,12.52,11.02,18.8.52.89.93,1.9,1.12,2.91.26,1.36-.35,2.41-1.72,2.8-1.87.54-3.82.85-4.76,1.05ZM440.72,420.98c-.06.26-.18.52-.16.77.01.15.26.27.41.4,0-.12.06-.26.02-.37-.09-.25-.21-.48-.32-.72-.11-.03-.21-.06-.32-.08.11-.11.21-.22.32-.33.03.1.06.2.06.34ZM440.59,427.55c1.57.86,2.7.97,3.28-.37.15-.36-.61-1.12-1.19-2.09-.79.93-1.34,1.58-2.08,2.45Z"/>
    <path class="cls-2" d="M246.5,221.74c-.86.1-1.61.29-2.35.25-4.57-.27-9.07.38-13.58,1-5.7.79-11.41,1.54-17.13,2.22-2.08.25-4.19.25-6.19.36-.47-1.33.25-1.62.96-1.86,6.47-2.14,12.94-4.27,19.42-6.41,3.17-1.04,6.3-2.18,9.51-3.08,2.03-.57,4.15-.9,6.25-1.1,2.27-.22,3.33.71,3.76,2.98.34,1.78.74,3.58-.65,5.62ZM236.51,217.66c2.16.93,3.92-.49,5.85-.96-2.13-.75-3.99.08-5.85.96Z"/>
    <path class="cls-2" d="M892.25,123.7c.41,5.28.78,10.57,1.23,15.85.29,3.32.65,6.63,1.06,9.94.72,5.89.78,11.75.18,17.67-.41,4.05,0,8.17-.07,12.26-.14,7.64,1.63,15.02,2.82,22.49.26,1.64.56,3.3.61,4.95.08,2.34-2.13,3.88-4.33,3.1-.39-.14-.87-.5-.98-.86-.39-1.29-.94-2.64-.88-3.95.45-9.51.05-19.05,1.02-28.55-.84-6.68,1.22-13.27.54-19.95-.4-3.92-.52-7.87-.85-11.79-.61-7.08-1.13-14.17-.35-21.16Z"/>
    <path class="cls-2" d="M606.4,268.87c-.2-2.69-.52-6.16-.7-9.64-.07-1.34.08-2.71.35-4.03.22-1.07.88-2.01,2.16-1.94,1.39.07,2.77.34,3.34,1.87.26.7.38,1.47.43,2.22.23,3.32.52,6.64.6,9.96.12,4.99.09,9.99.11,14.99,0,.45-.02.91-.08,1.36-.21,1.6-.96,2.63-1.95,2.74-1.46.15-3.07-.86-3.54-2.3-.19-.57-.29-1.18-.3-1.78-.04-2.57,0-5.13-.06-7.7-.04-1.66-.2-3.32-.36-5.76Z"/>
    <path class="cls-2" d="M12.87,144.87c.13-1.41.25-2.3.27-3.19,0-.56-.05-1.16-.25-1.67-1.01-2.48-.74-3.19,1.68-3.72,4.29-.93,8.6-1.82,12.9-2.7.59-.12,1.2-.17,1.81-.19,3.03-.1,4.29,1.21,3.79,4.14-.34,1.99-1.17,3.74-3.17,4.69-4.31,2.05-8.95,2.78-13.61,3.4-.96.13-2.02-.43-3.42-.76Z"/>
    <path class="cls-2" d="M379.89,433.9c-1.44-3.52.88-4.65,2.54-6.4.2.61.32,1,.45,1.38.09.28.2.55.34.93.37.07.8.26,1.22.23,7.83-.55,15.71.05,23.5-1.28,1.03-.18,2.11-.16,3.16-.1,1.35.09,2.07,1.08,1.98,2.51-.13,2-.89,2.9-2.58,3.09-8.13.94-16.27.67-24.42.4-2.08-.07-4.15-.5-6.2-.77Z"/>
    <path class="cls-2" d="M726.2,312.44c.39.16.82.3,1.21.52.95.55,1.12,1.53.77,2.37-.25.59-.97,1.18-1.61,1.38-.99.31-2.09.35-3.15.42-8.02.54-16.03,1.08-24.08.58-5.45-.34-10.89-.67-16.33-1.06-.67-.05-1.32-.38-1.87-.55-.08-1.13.51-1.32,1.11-1.37,3.47-.31,6.95-.66,10.43-.86,9.85-.57,19.7-.48,29.55.2,1.47.1,1.47.07,3.98-1.63Z"/>
    <path class="cls-2" d="M219.71,190.23c-2.15,1.09-3.97,1-5.72.58-2.77-.67-5.51-1.48-8.21-2.36-1.29-.42-2.6-1.1-2.63-2.74-.03-1.81.99-3.11,2.42-4.06.49-.32,1.11-.47,1.69-.62,3.06-.78,6.12-1.54,9.19-2.29.73-.18,1.46-.36,2.2-.43.89-.08,2.07.88,1.8,1.61-1.21,3.34-.25,6.83-.74,10.32Z"/>
    <path class="cls-2" d="M22.95,109.75c.45,0,.9-.03,1.35,0,3.29.28,3.82,2.68,2.98,5.2-.19.57-1.02,1.12-1.67,1.32-4.44,1.41-8.9,2.73-13.36,4.05-.56.17-1.19.2-1.78.16-2.83-.16-4.61-2.63-3.73-5.38.23-.73,1.11-1.42,1.85-1.78,2.83-1.35,10.97-3.46,14.36-3.58Z"/>
    <path class="cls-2" d="M689.1,241.88c1.3-.23,2.6-.6,3.91-.66,6.65-.33,13.29-.59,19.94-.83,1.2-.04,2.42.08,3.62.2,3.01.31,6.02.58,9,1.02,1.61.24,3.18.79,5.42,1.37-1.13.71-1.65,1.25-2.26,1.39-3.55.81-7.07,1.31-10.77.52-2.63-.56-5.41-.42-8.13-.54-5.28-.23-10.57-.4-15.85-.62-1.64-.07-3.27-.25-4.89-1.85Z"/>
    <path class="cls-2" d="M595.25,118.36c1.21,2.15.85,3.67.76,5.13-.78,13.12-3.13,26.02-5.9,38.92-.07-1.12-.17-2.23-.22-3.35-.45-10.31.23-20.55,1.88-30.73.41-2.53,1.09-5.02,1.79-7.48.22-.76.92-1.38,1.69-2.48Z"/>
    <path class="cls-2" d="M69.69,105.64c.77-.23,1.55-.55,2.35-.68,5.52-.85,11.12-1.04,16.58-2.4,1.62-.41,3.27-.61,4.56-1.77.84-.76,1.8-.97,2.91-.93,1.8.06,3.63-.21,5.41-.01,2.64.29,3.77,2.9,2.19,5-.92,1.22-2.24,2.06-3.89,1.94-1.35-.1-2.75-.09-4.02-.48-4.05-1.25-8.04-.28-12.07.05-4.06.33-8.14.39-12.22.53-.7.02-1.55.06-1.82-1.24Z"/>
    <path class="cls-2" d="M26.11,255.81c1.02,4.69,2.01,9.39,3.06,14.08,1.85,8.3,2.14,16.81,3.51,25.17,1,6.11,1.71,12.28,3.46,18.25.6,2.03.37,2.78-.61,3.16-1.37.53-2.57-.39-2.89-2.57-.5-3.44-.86-6.91-1.22-10.37-.38-3.61-.69-7.23-1.02-10.84-.44-4.82-.72-9.67-1.36-14.47-.61-4.65-1.61-9.24-2.4-13.87-.48-2.8-.91-5.61-1.36-8.41.28-.05.55-.09.83-.14Z"/>
    <path class="cls-2" d="M797.86,115.93c.12-3.77.47-4.21,3.14-4.34,2.72-.13,5.44-.15,8.15-.27,1.91-.09,3.84.16,4.7,1.97.81,1.7.23,3.61-.79,5.18-.86,1.32-1.99,1.86-3.82,1.66-4.19-.45-7.61-2.55-11.38-4.2Z"/>
    <path class="cls-2" d="M244.33,291.79c-.15-.02-.32,0-.45-.07-3.35-1.67-7.03-1.47-10.6-1.83-.74-.08-1.47-.32-2.18-.58-.77-.28-1.34-.92-1.11-1.72.19-.65.68-1.36,1.24-1.7.6-.36,1.45-.33,2.19-.42,3.13-.4,6.28-.73,9.4-1.21,1.81-.28,3.29.36,4.58,1.42.48.4.77,1.34.73,2-.06.87-.45,1.74-.85,2.54-.59,1.18-1.55,1.83-2.95,1.56Z"/>
    <path class="cls-2" d="M693.97,267.31c.31,0-.15,0-.6,0-3.18-.06-4.36-1.27-4.34-4.42.02-2,1.22-3.61,3.24-3.68,2.4-.08,4.85.06,7.21.49,2.14.39,2.91,2.69,1.8,4.68-.93,1.67-2.15,2.91-4.3,2.75-.75-.05-1.51.08-3.02.18Z"/>
    <path class="cls-2" d="M22.42,367.94c.4,2,.7,3.16.85,4.33.86,6.47,3.11,12.61,4.47,18.96,1.39,6.5,2.64,13.03,3.92,19.56.08.39-.11.84-.36,2.54-.53-1.24-.76-1.62-.86-2.02-1.22-4.84-2.39-9.68-3.62-14.52-1.19-4.68-2.53-9.33-3.62-14.04-.82-3.53-1.38-7.11-1.96-10.69-.18-1.11-.3-2.33,1.18-4.12Z"/>
    <path class="cls-2" d="M572.13,117.52c.59.68,1.18,1.05,1.25,1.51.34,2.07.84,4.18.73,6.25-.36,6.78-1.1,13.52-2.55,20.17-.11.49-.47.92-1.23,2.33-.21-2.33-.4-3.6-.43-4.88-.18-7.55.08-15.08,1.17-22.56.12-.84.6-1.63,1.06-2.81Z"/>
    <path class="cls-2" d="M590.88,233.21c-.22-9.75,1.77-19.24,3.7-28.72.68-3.35,1.11-6.83,3.29-10.9,0,1.89.08,2.72-.01,3.53-1.01,9.28-5.07,31.31-6.99,36.09Z"/>
    <path class="cls-2" d="M532.65,448.55c-1.12.48-1.6.86-2.1.88-4.08.19-8.16.38-12.24.45-5.14.09-10.28.07-15.41.1-.9,0-1.13-.44-.9-2,3.41-.21,6.87-.5,10.34-.62,4.39-.15,8.78-.2,13.17-.21,2.22,0,4.41.32,7.15,1.41Z"/>
    <path class="cls-2" d="M591.99,388.49c0-.7-.11-1.28.02-1.81,1.26-4.98,2.55-9.95,3.85-14.92.07-.28.26-.57.47-.76.21-.18.53-.32.79-.3.25.02.62.21.71.42.23.55.47,1.15.46,1.73-.03,4.12-.64,8.15-2.29,11.95-.78,1.8-1.4,2.27-4.02,3.68Z"/>
    <path class="cls-2" d="M615.71,203.2c-.11,1.99.29,4.01-1.04,5.72-.31.4-.96.67-1.47.71-.33.03-.89-.39-1.02-.74-.38-.97-.85-2.02-.82-3.02.09-3.01.4-6.01.65-9.01.02-.27.23-.6.45-.74.35-.22.78-.39,1.19-.42.22-.02.64.25.69.45.49,2.35.92,4.7,1.37,7.06Z"/>
    <path class="cls-2" d="M784.63,98c-1.68.79-2.56,1.51-3.49,1.59-4.1.36-8.03-.86-12.01-1.59-.3-.06-.78-.81-.7-.96.26-.45.75-1.06,1.17-1.08,3.31-.1,6.61-.1,9.92-.08.9,0,1.84.05,2.67.32.63.2,1.13.8,2.43,1.8Z"/>
    <path class="cls-2" d="M751.34,139.53c-.49.64-.86,1.57-1.52,1.91-2.86,1.48-5.8,1.33-8.66-.07-1.22-.6-1.63-2.27-.83-3.51.28-.43.99-.95,1.41-.87,2.92.5,5.82,1.14,8.72,1.77.25.05.44.37.88.77Z"/>
    <path class="cls-2" d="M233.33,183.94c2.1-.75,4.33-.87,6.47-1.1,3.44-.37,6.92-.4,10.39-.53.77-.03,1.5.23,1.6,1.19.09.95-.59,1.67-1.62,1.75-.15.01-.3.02-.45.02-4.67-.05-9.34-.07-14.01-.18-.79-.02-1.86.33-2.37-1.15Z"/>
    <path class="cls-2" d="M573.63,198.76c-1.51-.21-2.45-1.17-3.15-2.24-1.97-3-3.83-6.07-5.7-9.13-.11-.18.05-.52.09-.79,4.7,2.7,7.96,7.17,8.76,12.15Z"/>
    <path class="cls-2" d="M612.8,381.85c.33-5.98,1.7-11.1,3.27-16.21,1.13.29.77.98.72,1.44-.42,3.87-.87,7.74-1.34,11.61-.15,1.24-.69,2.24-2.66,3.16Z"/>
    <path class="cls-2" d="M625.78,230.27c1.47.91,2.45,1.52,3.63,2.25-.43,2.57.2,5.28-.8,7.86-1.68.18-1.86-1.06-1.99-2-.36-2.53-.54-5.08-.84-8.11Z"/>
    <path class="cls-2" d="M29.1,166.94c-2.28-3.46-2.46-6.49-3.04-9.38-.13-.64.14-1.35.21-1.91,1.1-.34,1.4.31,1.59.8,1.17,3.1,1.92,6.28,1.24,10.49Z"/>
    <path class="cls-2" d="M198.06,226.7c-1.12,4.88-2.52,8.85-5.31,12.86.87-4.94,2.78-9.66,5.31-12.86Z"/>
    <path class="cls-2" d="M410.14,373.82c-.45.4-.73.75-1.09.93-.19.09-.65-.04-.78-.22-1.1-1.49-1.88-3.08-1.16-4.99.09-.24.42-.47.67-.53.23-.05.6.05.76.23,1.22,1.3,1.14,3.02,1.59,4.59Z"/>
    <path class="cls-2" d="M540.36,120.04c-2.45-1.59-3.1-3.45-3.18-5.52-.02-.57.62-1.16,1.27-2.28.69,2.81,1.22,4.98,1.91,7.79Z"/>
    <path class="cls-2" d="M826.77,108.31c1.29-1.4,2.71-1.44,4.2-1.17.2.04.45.4.47.63.01.24-.17.62-.37.72-1.34.66-2.7,1.05-4.29-.18Z"/>
    <path class="cls-2" d="M316.1,309.85c1.42,1.39,2.04,2.38,1.49,4.03-1.78-.82-2.16-1.95-1.49-4.03Z"/>
    <path class="cls-2" d="M163.31,123.86c-.08.11-.13.27-.24.31-1.11.39-2.19.56-3-.58-.06-.08,0-.3.07-.4.64-.9,1.32-.75,3.17.67Z"/>
    <path class="cls-2" d="M383.02,149.07c2.14-.02,2.9.92,3.68,2.42-1.7.09-2.6-.68-3.68-2.42Z"/>
    <path class="cls-2" d="M238.1,204.04c-.13-.63-.37-1.06-.24-1.31.17-.34.59-.66.96-.74.31-.07.74.15,1.03.35.08.06-.02.62-.19.76-.4.33-.9.55-1.57.94Z"/>
    <path class="cls-2" d="M632.21,256.82c-.34.15-.7.3-1.06.45-.09-.36-.36-.84-.22-1.06.15-.24.68-.25,1.04-.36.07.28.14.55.24.97Z"/>
    <path class="cls-2" d="M669.06,384.01c-.3-.27-.48-.44-.67-.6.38-.33.77-.65,1.15-.98.1.25.35.57.27.73-.16.33-.5.57-.76.85Z"/>
    <path class="cls-2" d="M634.24,233.01c-.07,0-.19,0-.19,0-.02-.12-.04-.25-.02-.37.02-.11.09-.22.13-.33.03.24.05.47.08.7Z"/>
    <path class="cls-2" d="M25.22,252.79c-.06-.26-.14-.52-.17-.78,0-.04.19-.11.29-.17.07.26.15.52.19.79,0,.04-.19.11-.3.16Z"/>
    <path class="cls-2" d="M588.69,251.81h-.27c0-.25,0-.49,0-.74.09,0,.25,0,.25,0,.01.24.01.49.01.73Z"/>
    <path class="cls-2" d="M412.6,184.01c.17.14.45.28.44.38-.02.23-.2.44-.32.65-.1-.1-.28-.19-.27-.29,0-.24.09-.47.15-.75Z"/>
    <path class="cls-2" d="M111.48,238.88c-2.42.89-3.85.19-5.04-1.07-.89-.95-1.89-2-.94-3.72,2.83.36,4.32,2.23,5.98,4.79Z"/>
    <path class="cls-2" d="M94.72,198.22c-1.8-2.81-2.68-5.25-2.74-8.22,2.15.32,2.49,1.93,2.88,3.22.43,1.41,1.51,2.95-.13,5Z"/>
    <path class="cls-2" d="M505.1,304.9c-3.34-1.11-5.85-2.24-8.49-2.74-2.83-.54-5.09-1.83-7.13-3.7-1.12-1.03-2.19-1.98-3.97-1.85-.7.05-1.6-.76-2.18-1.39-2.26-2.45-4.31-5.12-7.49-6.52-.39-.17-.8-.55-.96-.94-.53-1.23-.73-2.65-1.46-3.72-.73-1.08-2.12-1.71-2.9-2.78-.69-.95-1.07-2.19-1.34-3.35-.49-2.08-.95-4.09-2.57-5.68-.48-.47-.62-1.37-.73-2.1-.57-3.78-.55-3.78-2.21-6.22-.07-1.44.99-2.17,2-2.79,3.4-2.08,5.62-5.03,6.87-8.77.69-2.09,2-3.65,3.71-5.04,2.57-2.08,4.96-4.37,7.45-6.55.45-.39.93-.96,1.45-1.03,1.9-.26,3.22-1.86,4.84-2.29,4.47-1.18,8.68-3.1,13.62-3.02,5.39.09,10.16,1.47,14.63,4.02,4.51,2.57,8.33,6.07,11.19,10.5.25.38.44.82.77,1.12,5.08,4.68,6.36,11.24,8.61,17.32.02,3.87,1.01,7.73-.79,11.57-1.35,2.88-2.76,5.7-4.3,8.5-2.77,5.02-6.61,8.97-11.07,12.4-1.43,1.1-2.92,2.13-4.41,3.16-.36.25-.89.58-1.23.48-2.08-.62-3.84.52-5.73.89-.58.11-1.3.3-1.77.07-1.76-.87-3.24.16-4.4.45ZM509.48,269.9c4.18-2.39,5.14-3.95,4.56-6.7-.07-.35-.53-.8-.87-.86-.31-.06-.91.26-1.03.56-.83,2.03-1.57,4.1-2.66,7Z"/>
    <path class="cls-2" d="M494.9,187.82c.79-2.96,2.25-5.08,4.49-7,1.56,1.82,2.46,3.8,3.63,6.18-1.77,0-3.1-.1-4.4.03-1.15.11-2.28.47-3.72.79Z"/>
    <path class="cls-2" d="M506.17,190.18c-.26.29-.34.39-.43.49-.32-.4-.65-.79-.95-1.2,0-.01.22-.24.24-.23.4.31.78.63,1.15.94Z"/>
    <g>
      <path class="cls-2" d="M16.57,88.45l-.02-.3c-.21-.09-.41-.07-.61-.16-.29.22-.49.23-.78.35-.1,0-.19.11-.08.31.29-.22.68-.35,1.1-.07.2-.01.29-.12.39-.13ZM16.09,90.39c-.22-.29-.33-.48-.45-.67-.08.31-.07.41-.06.61.1,0,.3-.02.51.07ZM19.34,72.48c-.21-.19-.41-.07-.7.05.21.09.41.17.62.26,0-.1.09-.21.08-.31ZM22.96,84.71l-.03-.4-.3.02c.01.2-.08.31-.07.51.21.09.3-.02.39-.13ZM23.75,86.06c.39-.23.38-.33.17-.51-.1,0-.19.11-.29.22.11.09.11.19.12.29ZM24.26,84.62l.03.4c.29-.12.49-.13.69-.15.19-.21.07-.41-.05-.7-.29.22-.48.33-.67.45ZM28.93,77.68c.09-.11.18-.31.07-.41-.2.01-.4.03-.59.14.21.09.41.17.52.27ZM30.04,74.69c-.11-.19-.22-.29-.32-.28-.3.02-.39.23-.37.43.11.09.22.29.33.38.19-.21.27-.42.37-.53ZM52.92,72.49c.29-.22.48-.33.68-.45,0,0,.11.09.11.19.09-.21.18-.31.27-.42,0-.1-.11-.19-.12-.29-.31-.08-.61-.16-.82-.25-.09.11-.09.21-.08.31-.2.01-.4.03-.61-.06v.1c.12.19.23.29.43.37,0,.1.12.29.13.49ZM53.27,73.27c-.18.31-.46.63-.22,1.22.2-.01.32.28.61.16-.13-.49-.17-.99-.3-1.49l-.09.11ZM55.61,73.72c-.11-.19-.23-.39-.35-.68-.17.41-.05.71.35.68ZM55.58,71.61c.21.09.31.08.41.07.07-.41-.15-.69-.65-.66.11.19.23.39.24.59ZM58.62,81.16c.2-.01.39-.13.59-.14-.23-.39-.43-.47-.92-.24.11.09.21.19.33.38ZM59.41,84.12c-.09.11-.09.21-.18.31.11.09.21.19.41.17-.01-.2-.12-.29-.13-.49h-.1ZM60.4,80.84c-.11-.09-.21-.09-.41-.07l-.19.21s.1,0,.11.09l.9-.06c-.11-.19-.12-.29-.13-.49-.09.21-.19.21-.28.32ZM60.67,84.84c0,.1.11.09.11.19h.1c-.12-.3-.14-.6-.26-.89-.41-.17-.61-.16-.6.04,0,.1.11.19.11.19.01.2-.08.31-.07.51l.6-.04ZM63.11,86.9c-.4.03-.69.15-1.1.17-.3.02-.59.14-.79.25-.1,0-.2.01-.39.13.4-.03.61.06.91.04.2-.01.51.07.69-.25.51.07.91.14,1.4-.09-.22-.29-.52-.27-.72-.25ZM62.15,84.45c.2-.01.49-.13.79-.25.09-.21.17-.41.16-.61-.31-.08-.4.03-.49.23-.52-.27-.7.05-.99.27-.11-.19-.32-.28-.43-.38-.09.11-.19.21-.27.42.11.09.11.19.21.19.41.07.71.05,1.01.13Z"/>
      <path class="cls-2" d="M240.48,72.77c-.4-.03-.71.05-1.11.02-.3-.02-.61.06-.81.14-.1,0-.2-.01-.41.07.4.03.59.14.89.17.2.01.49.14.71-.15.49.14.89.27,1.4.1-.18-.31-.48-.34-.68-.35Z"/>
      <path class="cls-2" d="M350.28,70.52c-.2-.04-.31.04-.51,0-.06.29-.22.57-.38.84-.06.29,0,.51.29.57.22-.06.45-.21.79-.35-.12-.43-.15-.75-.19-1.06ZM352.36,72.38l.59.12c-.06-.22-.04-.31-.15-.75-.18.37-.3.45-.44.63ZM354.31,71.35c.02-.1-.04-.31-.02-.41-.1-.02-.12.08-.12.08l-.06.29.2.04Z"/>
      <path class="cls-2" d="M716.48,71.33c-.53-.55-1.28-.33-1.71-.84-.04.09-.08.18-.25.33.61.37,1.16.6,1.67.93.17-.15.21-.24.29-.42Z"/>
      <path class="cls-2" d="M788.15,73.76c0-.1-.09-.11-.08-.21h-.1q-.09-.12-.19-.13v.1c-.02.1-.04.3-.04.3l.4.04v-.1ZM796.87,73.16c0-.1.02-.2-.07-.31l-.2-.02s0,.1-.11.09q0,.1-.11.09l-.02.2h.1c.1.02.2.03.3.04l.11-.09ZM797.28,71.98c0-.1-.09-.11-.09-.11-.22.18-.43.26-.35.57,0,0,0,.1.09.11h.1c.32-.16.24-.37.25-.57ZM803.9,74.51l-.27-.33c-.18-.22-.29-.13-.49-.15v.1c-.02.1.08.11.07.21.1,0,.09.11.09.11.08.21.28.23.49.15h.1s0-.09,0-.09ZM806.28,74.93c-.29-.13-.58-.25-.77-.37l-.2-.02c-.11.09-.12.19-.22.18l.09.11c.29.13.57.35.88.28.1,0,.11-.09.21-.08v-.1Z"/>
      <path class="cls-2" d="M828.87,75.48c-.19-.07-.32-.01-.5-.09-.11.28-.31.53-.51.77-.11.28-.09.5.19.61.22-.02.48-.14.83-.22-.04-.45-.03-.76-.02-1.08ZM829.01,74.56l-.26.12c.09.04.06.13.15.17.04-.09.13-.06.17-.15,0,0-.09-.04-.06-.13ZM829.53,73.48c.07-.19.05-.41.09-.5q-.29.21-.09.5ZM830.62,77.65l.56.22c-.02-.22.01-.32-.03-.76-.24.34-.37.4-.53.55ZM832.71,76.95c.04-.09.01-.32.05-.41-.09-.04-.13.06-.13.06l-.11.28.19.07Z"/>
    </g>
  </g>
</svg>